<?xml version="1.0" encoding="UTF-8" standalone="no"?>
<!-- Created with Inkscape (http://www.inkscape.org/) -->

<svg
   version="1.1"
   id="svg242"
   width="416.96533"
   height="244.17477"
   viewBox="0 0 416.96533 244.17477"
   sodipodi:docname="WhatsApp Image 2024-02-02 at 00.34.32.jpeg"
   xmlns:inkscape="http://www.inkscape.org/namespaces/inkscape"
   xmlns:sodipodi="http://sodipodi.sourceforge.net/DTD/sodipodi-0.dtd"
   xmlns="http://www.w3.org/2000/svg"
   xmlns:svg="http://www.w3.org/2000/svg">
  <defs
     id="defs246" />
  <sodipodi:namedview
     id="namedview244"
     pagecolor="#ffffff"
     bordercolor="#000000"
     borderopacity="0.25"
     inkscape:showpageshadow="2"
     inkscape:pageopacity="0.0"
     inkscape:pagecheckerboard="0"
     inkscape:deskcolor="#d1d1d1"
     showgrid="false"
     inkscape:zoom="1.1236408"
     inkscape:cx="233.61559"
     inkscape:cy="133.93961"
     inkscape:window-width="1440"
     inkscape:window-height="847"
     inkscape:window-x="0"
     inkscape:window-y="25"
     inkscape:window-maximized="1"
     inkscape:current-layer="g248" />
  <g
     inkscape:groupmode="layer"
     inkscape:label="Image"
     id="g248"
     transform="translate(-39.034672,-141.80392)">
    <path
       style="fill:#000000"
       d="M 58.655312,385.25 C 57.278953,383.01914 55.837583,370.2813 55.006014,353 54.489932,342.275 53.632538,329 53.100695,323.5 52.568853,318 51.850218,306.525 51.503729,298 c -0.346488,-8.525 -1.077095,-17.75 -1.62357,-20.5 -0.546476,-2.75 -1.626611,-14.675 -2.400301,-26.5 -0.77369,-11.825 -1.842743,-23.525 -2.375674,-26 -0.532931,-2.475 -1.468132,-11.475 -2.078225,-20 -0.610093,-8.525 -1.551321,-18.90627 -2.091618,-23.06949 -0.540297,-4.16322 -1.260877,-13.39223 -1.601288,-20.50892 -0.549509,-11.4881 -0.425927,-13.09962 1.101795,-14.36752 1.382461,-1.14734 8.634989,-1.56128 36.892939,-2.10568 23.661853,-0.45586 36.481243,-1.08882 39.172213,-1.93414 6.06949,-1.90662 22.34069,-1.52651 38.5,0.8994 22.79357,3.42187 37.00936,6.10629 41.18531,7.77717 7.7744,3.1107 15.77755,16.01011 17.367,27.992 l 0.65116,4.90869 14.64827,-5.88391 c 22.89616,-9.19694 39.16155,-12.47265 47.34292,-9.53447 5.1184,1.83818 17.06227,12.01679 23.37381,19.91926 4.97374,6.22745 12.23425,11.88602 17.13236,13.35233 3.85565,1.15423 9.66545,-1.24285 17.68747,-7.29774 10.90853,-8.23358 16.25778,-9.59782 26.02063,-6.63616 7.97738,2.42003 11.67653,1.96389 17.70534,-2.18319 2.93627,-2.01981 7.14927,-4.21733 9.36221,-4.88339 3.07573,-0.92575 3.94333,-1.65073 3.68308,-3.07763 -1.26276,-6.92365 -1.21247,-9.36361 0.25133,-12.19429 1.72548,-3.33671 1.82215,-3.1451 -3.66089,-7.25578 -3.0907,-2.31713 -3.65036,-6.30315 -1.3304,-9.47541 1.08005,-1.47683 2.48985,-1.90058 5.89407,-1.77159 6.21379,0.23544 10.15749,2.57192 13.25107,7.85072 2.84117,4.84809 2.89844,7.79456 0.31581,16.24937 -1.08232,3.54322 -1.07368,4.81921 0.0508,7.5 0.74525,1.7767 1.55578,5.07859 1.80117,7.33752 0.63415,5.83779 -2.69424,8.39285 -10.93311,8.39285 -6.6287,0 -7.64688,0.41954 -16.07419,6.62337 -4.97787,3.6645 -6.68951,4.37663 -10.51949,4.37663 -5.80399,0 -12.49124,3.19868 -16.00223,7.65428 -3.19439,4.0538 -11.16643,10.28018 -16.73818,13.07295 -8.61824,4.3198 -18.18772,3.47957 -26.23136,-2.3032 -2.60367,-1.87185 -6.98395,-4.59619 -9.73395,-6.05409 -2.75,-1.4579 -6.70448,-4.10775 -8.78773,-5.88856 -4.65272,-3.97724 -8.82442,-4.72317 -19.56442,-3.49824 -9.13503,1.04187 -17.38913,4.52896 -37.64785,15.905 -6.05,3.3973 -12.9125,6.6657 -15.25,7.2631 -4.23491,1.08233 -4.24995,1.10264 -4.23635,5.71747 0.0161,5.44771 0.90041,9.30244 1.98093,8.63464 1.58552,-0.97991 26.04395,2.53914 31.29009,4.50197 5.13831,1.92249 25.40875,13.59032 28.735,16.5401 0.83582,0.74122 4.88582,2.7941 9,4.56197 9.45152,4.06132 14.6687,4.13958 22.63659,0.33958 7.98949,-3.81031 14.36796,-4.23208 21.34374,-1.41134 11.46715,4.63689 13.47899,4.99063 19.48556,3.42612 3.63856,-0.94773 7.37157,-2.95139 10.99055,-5.89909 5.99787,-4.88533 7.27405,-5.23222 21.8374,-5.93582 9.32809,-0.45067 10.14651,-0.67532 16.54535,-4.54156 4.15145,-2.50834 8.577,-4.32035 11.54559,-4.72724 3.86965,-0.53039 5.72394,-1.53143 9.45465,-5.10408 6.3835,-6.11306 7.89889,-6.96878 13.6409,-7.70277 6.04755,-0.77305 13.10899,1.15046 18.04509,4.9154 3.03372,2.31393 3.45491,3.18142 3.45491,7.11569 0,5.86324 -1.45969,6.30412 -8.22703,2.48487 C 444.50405,253.22228 440.90692,252 438.74647,252 c -3.12271,0 -4.21294,0.72702 -8.34746,5.56653 -5.30196,6.20601 -7.56625,7.61705 -15.04097,9.3731 -4.01407,0.94304 -5.81855,2.04994 -8.22648,5.04628 -3.54687,4.41361 -8.79291,6.01409 -19.7129,6.01409 -7.49616,0 -11.59864,1.4631 -16.72629,5.96524 -6.08032,5.33859 -12.63414,7.32458 -25.42461,7.70436 -17.70212,0.52561 -23.80731,1.69071 -29.68372,5.66476 -8.7085,5.8893 -9.0498,5.97875 -20.51673,5.37711 -12.14117,-0.63703 -17.62813,-2.11587 -31.56731,-8.50804 -8.01443,-3.67522 -11.0148,-4.5637 -15.11088,-4.47465 -7.66702,0.16668 -14.94077,2.72726 -23.33986,8.21634 -9.64111,6.30078 -14.80346,7.65128 -23.475,6.1412 -11.96548,-2.0837 -22.9444,-9.61775 -25.55868,-17.53911 -0.92582,-2.80527 -1.60956,-3.52836 -2.86575,-3.03068 -0.90741,0.35949 -3.22483,0.90982 -5.14983,1.22294 -1.925,0.31313 -5.75,1.80522 -8.5,3.31576 -10.05549,5.52334 -33.28015,8.72661 -43.5,5.99974 -1.925,-0.51363 -11.15,-1.4329 -20.5,-2.04283 -15.682212,-1.023 -32.252999,-3.82222 -36.854336,-6.22562 -2.048021,-1.06973 -2.021776,1.11322 0.453432,37.71348 0.898488,13.28572 2.688487,42.44588 3.329931,54.2466 0.126957,2.33562 0.528458,4.54422 0.892226,4.90799 0.363767,0.36376 0.160199,1.2653 -0.452374,2.0034 -1.215488,1.46457 -3.479016,1.7826 -4.213567,0.59201 z M 218.70237,295.40415 C 227.80122,288.19928 239.0082,284 249.13759,284 c 6.22354,0 20.51601,4.67276 22.83349,7.46515 0.63459,0.76464 6.1882,2.59712 12.34136,4.0722 15.35247,3.68038 20.23579,3.20194 29.07195,-2.84832 C 321.46216,287.15806 326.39342,286 341.86772,286 c 14.56241,0 19.81115,-1.4493 27.13228,-7.49188 6.46603,-5.3368 9.97221,-6.495 19.6849,-6.50254 8.54934,-0.007 10.9787,-0.81371 16.01282,-5.31972 2.5267,-2.26163 5.6474,-3.82657 9.30228,-4.66482 4.76793,-1.09354 6.29862,-2.1053 11.5,-7.6014 3.3,-3.48697 7.125,-6.77936 8.5,-7.31641 2.24695,-0.87762 2.28744,-0.98287 0.40004,-1.03984 C 432.15891,245.99574 424,251.38906 424,252.93818 c 0,1.79494 -5.89679,5.09402 -10.75031,6.01447 -2.70155,0.51234 -7.7883,2.64508 -11.30389,4.73944 -6.24217,3.71866 -6.6856,3.82276 -18.91889,4.4415 -6.8898,0.34848 -12.62439,0.68598 -12.74353,0.75 -0.11914,0.064 -2.49666,2.14141 -5.28338,4.61641 l -5.06676,4.5 -11.21662,-0.0235 c -7.86002,-0.0165 -13.39697,-0.60349 -18.50261,-1.96156 -7.80256,-2.07544 -7.85184,-2.06882 -17.52395,2.3553 -4.82991,2.20925 -5.86389,2.31811 -14.83146,1.56148 -11.68406,-0.98583 -14.3854,-2.05739 -27.28337,-10.82264 C 251.98747,256.4771 246.83563,254.60385 227.75,253.5375 L 217,252.93688 v 2.99405 c 0,5.30071 -3.94668,13.84848 -8.91846,19.31573 -2.62749,2.88934 -4.58179,5.82014 -4.34288,6.51289 0.23891,0.69276 -1.17956,4.19575 -3.15214,7.78443 C 198.61393,293.13265 197,296.47347 197,296.968 c 0,1.25225 4.39413,1.86727 11.70237,1.63792 5.22228,-0.16388 6.80247,-0.66983 10,-3.20177 z m -74.9409,-7.95853 c 8.51301,-1.64847 10.72016,-2.70248 18.6909,-8.92569 4.28312,-3.34408 6.52659,-4.47916 8,-4.04761 1.1262,0.32986 8.34404,0.56339 16.03964,0.51894 13.78946,-0.0796 14.03327,-0.11996 16.84158,-2.78603 3.51154,-3.33366 5.97366,-8.01443 8.14564,-15.48577 1.57852,-5.42992 1.55619,-6.65383 -0.43971,-24.1059 -1.15646,-10.11205 -2.47412,-26.87435 -2.92812,-37.24955 -1.58603,-36.24493 -5.53723,-40.09749 -46.1114,-44.96019 -7.975,-0.95578 -15.4,-1.66636 -16.5,-1.57906 -1.1,0.0873 -6.13497,-0.28646 -11.18881,-0.83059 -7.97758,-0.85891 -10.548,-0.71178 -19.5,1.11614 -9.02008,1.84183 -14.10151,2.12326 -40.581732,2.24758 L 43.958917,151.5 l 0.509724,4 c 1.005955,7.89412 2.572737,23.11192 2.98576,29 1.958727,27.9238 4.849963,63.27877 5.274638,64.5 0.28689,0.825 0.628562,3.525 0.759271,6 0.657141,12.44307 1.838235,21.72609 2.959315,23.25926 2.301222,3.14711 18.630006,6.54607 39.552375,8.23312 10.725,0.8648 21.75,1.94261 24.5,2.39514 5.86292,0.96478 13.17291,0.51165 23.26147,-1.4419 z m -30.89132,-22.35401 c -16.004709,-5.11945 -29.890373,-18.87038 -36.021054,-35.67152 -3.217858,-8.81854 -3.236189,-26.35164 -0.03723,-35.61053 6.040546,-17.48343 20.121255,-30.85399 38.119634,-36.19712 6.20907,-1.84327 22.05459,-2.1365 29.0685,-0.53793 7.44246,1.69624 18.60877,7.80576 24.27945,13.28421 6.75632,6.52728 10.6726,12.31696 14.30051,21.14128 2.63764,6.41565 2.87964,8.04347 2.89896,19.5 0.0238,14.11479 -1.28202,19.41583 -7.22448,29.32793 -7.10488,11.85106 -19.23211,21.3031 -32.18594,25.08594 -7.66474,2.23829 -25.74201,2.06282 -33.19835,-0.32226 z m 27.9548,-5.61227 c 9.53504,-2.24787 16.94688,-6.31167 23.88952,-13.09826 15.00501,-14.66776 18.94677,-37.54174 9.6952,-56.26102 -4.45515,-9.01439 -13.67159,-18.63335 -21.54408,-22.485 -20.12121,-9.84439 -42.94374,-5.83589 -58.070606,10.19939 -9.710807,10.29397 -13.78276,20.25747 -13.758669,33.66555 0.02557,14.23355 4.568442,24.89405 14.830003,34.80075 12.929362,12.48225 28.523192,17.05322 44.958632,13.17859 z M 119.9992,211.75 C 100.50345,200.04316 108.77383,170 131.49228,170 145.09032,170 154,178.90662 154,192.5 c 0,13.61615 -8.98735,22.5 -22.76212,22.5 -4.79644,0 -6.78308,-0.5745 -11.23868,-3.25 z m 113.05911,8.21994 c 5.25708,-2.63768 11.79326,-6.11356 14.52485,-7.72416 10.34765,-6.10119 17.61271,-8.27817 29.68095,-8.8939 10.92682,-0.5575 11.33216,-0.50248 14.73589,2.00009 1.925,1.41535 6.2,3.99978 9.5,5.74319 3.3,1.7434 7.35,4.30503 9,5.6925 4.25488,3.5779 12.42342,7.19109 16.28324,7.20257 5.06046,0.0151 12.12132,-4.13965 21.19855,-12.47351 9.95785,-9.14237 12.53897,-10.57224 20.36538,-11.28192 5.05248,-0.45814 7.39428,-1.40719 14.53487,-5.89047 C 390.3639,189.64678 392.02868,189 396.638,189 c 2.88418,0 5.51391,-0.43678 5.84385,-0.97063 0.32994,-0.53385 -0.0806,-2.28661 -0.91238,-3.89503 -2.82101,-5.45522 -2.97276,-10.32611 -0.50073,-16.07248 2.25461,-5.241 2.25719,-5.30117 0.3771,-8.7923 -1.86548,-3.46397 -7.7561,-7.29263 -9.12068,-5.92806 -0.38497,0.38498 0.79447,1.94756 2.621,3.47241 3.07224,2.56482 3.26531,3.06876 2.5781,6.72927 -0.40856,2.17625 -0.80616,7.68464 -0.88355,12.24086 -0.15477,9.11168 -0.36425,9.44847 -7.0224,11.29023 -2.13493,0.59056 -6.1011,2.60043 -8.81372,4.46637 -6.10101,4.19677 -10.4068,5.06555 -17.10966,3.45223 -6.301,-1.51659 -14.35394,-1.87236 -17.54397,-0.77507 -1.29198,0.44441 -6.12023,3.54796 -10.72946,6.89679 -10.39762,7.55437 -14.395,8.64727 -21.60625,5.90721 -7.39149,-2.80855 -13.67918,-7.42939 -18.31525,-13.45993 -4.73156,-6.15474 -16.95369,-17.40367 -20.28586,-18.67055 -7.19757,-2.73651 -19.71793,-0.32412 -39.88898,7.68572 C 226.429,186.10967 218.46805,189 217.63418,189 c -0.83388,0 -1.79909,0.45781 -2.1449,1.01735 -0.8282,1.34005 -0.90381,35.50291 -0.0815,36.83339 0.7547,1.22113 4.1094,-0.0866 17.65056,-6.8808 z m -13.3588,139.68938 c -0.28296,-0.73738 -0.11299,-1.97488 0.3777,-2.75 0.49069,-0.77513 0.89906,-5.79682 0.90748,-11.15932 0.0143,-9.07823 0.15311,-9.75 2.01531,-9.75 1.87027,0 2,0.66667 2,10.27749 0,7.68347 -0.39291,10.83846 -1.5567,12.5 -1.77492,2.53405 -2.99912,2.8224 -3.74379,0.88183 z m 149.57428,0.21464 c -0.95499,-0.95513 -0.96082,-1.54614 -0.0263,-2.67212 0.72631,-0.87514 1.25215,-5.24569 1.33234,-11.07379 0.11101,-8.06835 0.39877,-9.68043 1.77634,-9.95137 2.5212,-0.49589 2.42735,19.63429 -0.10613,22.7627 -1.38199,1.70652 -2.00786,1.90305 -2.97621,0.93458 z M 88,340 v -13 h -4 c -2.888889,0 -4,-0.41667 -4,-1.5 0,-1.23333 1.777778,-1.5 10,-1.5 8.222222,0 10,0.26667 10,1.5 0,1.08333 -1.111111,1.5 -4,1.5 h -4 v 13 c 0,12.33333 -0.102564,13 -2,13 -1.897436,0 -2,-0.66667 -2,-13 z m 22,-3 c 0,-13.55556 0.22917,-16 1.5,-16 1.21569,0 1.5,1.61111 1.5,8.5 0,7.7165 0.82905,10.20365 2.5,7.5 0.33992,-0.55 2.37564,-1 4.52383,-1 4.96511,0 5.97617,1.76529 5.97617,10.43426 0,5.84791 -0.21367,6.56574 -1.95431,6.56574 -1.71686,0 -1.99024,-0.82014 -2.25,-6.75 -0.27088,-6.18357 -0.48912,-6.77742 -2.60073,-7.07676 C 115.33382,338.62588 114,340.66687 114,347.12244 114,352.33333 113.77315,353 112,353 c -1.91667,0 -2,-0.66667 -2,-16 z m 28.51148,13.60239 C 132.8888,344.97971 136.827,336 144.91559,336 c 4.02918,0 8.08441,2.80826 8.08441,5.59846 0,0.67174 -2.89808,2.26071 -6.44019,3.53105 -5.25174,1.88348 -6.22821,2.56512 -5.29149,3.6938 0.77281,0.93117 2.40787,1.2152 4.99665,0.86798 3.2052,-0.42991 3.79531,-0.23844 3.53286,1.14629 -0.2228,1.17553 -1.55394,1.75232 -4.54497,1.96936 -3.42584,0.24859 -4.7073,-0.17047 -6.74138,-2.20455 z m 5.81038,-7.19639 c 5.12655,-1.74679 5.86499,-3.03141 2.46544,-4.28898 -3.19764,-1.18288 -5.80484,-0.20109 -6.86402,2.58477 -1.49568,3.93393 -1.79966,3.81616 4.39858,1.70421 z m 43.13534,7.73097 c -4.71947,-2.87803 -6.86157,-6.88568 -6.87448,-12.86147 -0.0185,-8.57637 5.82365,-14.57568 14.31687,-14.70192 11.30497,-0.16804 18.89804,12.68554 13.10581,22.18556 -4.17462,6.84693 -13.94566,9.40418 -20.5482,5.37783 z M 201.7581,348 c 1.21657,0 4.23518,-7.24586 4.23816,-10.17327 0.0116,-11.38359 -16.24438,-14.65715 -20.63251,-4.15489 -3.71122,8.88222 3.95812,17.74238 13.12965,15.16829 C 200.13977,348.37806 201.60888,348 201.7581,348 Z m 41.49813,3.35534 c -9.46103,-4.6641 -10.03405,-19.86011 -0.95768,-25.39665 5.03365,-3.0705 8.91822,-3.39874 13.93899,-1.17781 5.83486,2.58103 8.76246,7.26202 8.76246,14.01043 0,3.99461 -0.54951,5.7083 -2.61912,8.16788 -5.04303,5.99331 -12.43712,7.69297 -19.12465,4.39615 z M 258.75,345.46186 c 1.62571,-1.85938 2.25,-3.83423 2.25,-7.11762 0,-3.83463 -0.53093,-5.07517 -3.4,-7.94424 -3.88538,-3.88538 -8.0116,-4.45136 -12.61734,-1.73068 -8.07352,4.76914 -6.80203,17.00137 2.07371,19.94987 4.29664,1.42733 8.73222,0.2297 11.69363,-3.15733 z M 295,338.5 V 324 l 6.25,0.0318 c 3.4375,0.0175 6.964,0.58 7.83666,1.25 7.27002,5.58175 3.1257,16.7182 -6.22152,16.7182 H 299 v 5.5 c 0,4.83333 -0.24242,5.5 -2,5.5 -1.90805,0 -2,-0.66667 -2,-14.5 z m 12.42857,-2.07143 C 311.16346,332.69369 307.75091,327 301.77749,327 299.0775,327 299,327.15347 299,332.5 v 5.5 h 3.42857 c 1.88572,0 4.13572,-0.70714 5,-1.57143 z M 323,344.5 c 0,-6.88889 0.28431,-8.5 1.5,-8.5 0.825,0 1.5,0.675 1.5,1.5 0,0.825 0.3949,1.5 0.87756,1.5 0.48265,0 1.43775,-0.675 2.12244,-1.5 0.68469,-0.825 1.86479,-1.5 2.62244,-1.5 2.41493,0 1.46923,2.44064 -1.62876,4.20349 -2.76033,1.5707 -2.99368,2.13583 -2.99368,7.25 0,4.87984 -0.24039,5.54651 -2,5.54651 -1.84314,0 -2,-0.66667 -2,-8.5 z m 21.45455,6.04545 C 338.85219,344.9431 342.87659,336 351,336 c 5.40066,0 9,3.39938 9,8.5 0,7.76215 -9.95671,11.6342 -15.54545,6.04545 z M 354.8,348.8 c 1.66071,-1.66071 1.50631,-7.3009 -0.23953,-8.74981 -2.35383,-1.95351 -6.8287,-0.85211 -8.46944,2.08458 -1.31845,2.35984 -1.29325,2.90765 0.24151,5.25 1.85796,2.83561 6.30398,3.57871 8.46746,1.41523 z m 33.11334,2.9182 c -4.4291,-3.40056 -4.9463,-8.33714 -1.32445,-12.64147 2.15835,-2.56505 3.31043,-3.07673 6.92742,-3.07673 3.49591,0 4.74106,0.51173 6.41111,2.63486 1.13992,1.44917 2.07258,2.98748 2.07258,3.41847 0,0.43098 -2.925,1.75699 -6.5,2.94667 -3.575,1.18968 -6.5,2.5678 -6.5,3.06248 0,1.26923 4.46989,2.24055 6.84367,1.48714 2.36941,-0.75202 4.0067,1.29767 2.03445,2.54687 -2.00531,1.27014 -8.1201,1.03801 -9.96478,-0.37829 z m 5.06642,-8.32678 c 4.51844,-1.80792 4.96332,-2.81633 1.95318,-4.42731 C 392.3125,337.5617 388,340.08648 388,343.02305 c 0,2.38317 -0.047,2.37969 4.97976,0.36837 z m 20.90138,8.60187 c -2.3106,-1.35007 -4.21664,-6.52043 -3.48231,-9.4462 1.33954,-5.33719 8.93936,-8.51912 13.47929,-5.64358 2.31637,1.46717 0.28562,2.99732 -3.22241,2.42804 C 416.77033,338.70104 414,340.85232 414,344.5 c 0,3.5506 2.75258,5.7477 6.63328,5.29465 3.45594,-0.40346 5.49287,1.55923 2.72179,2.62259 -2.29767,0.8817 -7.64922,0.64222 -9.47393,-0.42395 z M 437,346 c 0,-5.55556 -0.30952,-7 -1.5,-7 -0.825,0 -1.5,-0.675 -1.5,-1.5 0,-0.825 0.675,-1.5 1.5,-1.5 1.04762,0 1.5,-1.05556 1.5,-3.5 0,-2.44444 0.45238,-3.5 1.5,-3.5 1.04762,0 1.5,1.05556 1.5,3.5 0,3.06667 0.30952,3.5 2.5,3.5 3.1534,0 3.36859,2.73754 0.25,3.18045 -2.0444,0.29035 -2.27702,0.93635 -2.54569,7.06955 -0.22356,5.10354 -0.65043,6.75 -1.75,6.75 C 437.3204,353 437,351.45781 437,346 Z M 221.5,331 c -0.83704,-1.35436 0.29243,-3 2.05902,-3 0.79254,0 1.44098,0.9 1.44098,2 0,2.07031 -2.41251,2.7596 -3.5,1 z m 148.98037,-0.0318 c -0.38836,-0.62838 -0.23556,-1.61305 0.33954,-2.18815 1.3439,-1.3439 4.47714,-0.17169 3.93038,1.47044 -0.5566,1.67168 -3.38637,2.14732 -4.26992,0.71771 z"
       id="path360" />
  </g>
</svg>
